<?xml version="1.0" encoding="utf-8"?>
<svg version="1.1" xmlns:xlink="http://www.w3.org/1999/xlink" width="300px" height="230px" xmlns="http://www.w3.org/2000/svg">
  <g transform="matrix(1 0 0 1 -200 -40 )">
    <path d="M 200 40  L 500 40  L 500 270  L 200 270  L 200 40  " fill-rule="nonzero" fill="#cccccc" stroke="none" />
    <path d="M 216 56  L 484 56  L 484 254  L 216 254  L 216 56  " fill-rule="nonzero" fill="#ffffff" stroke="none" />
    <path d="M 373.25 109  C 363.59 109  356 101.41  356 91.75  C 356 82.09  363.59 74.5  373.25 74.5  C 382.91 74.5  390.5 82.09  390.5 91.75  C 390.5 101.41  382.91 109  373.25 109  " fill-rule="nonzero" fill="#cccccc" stroke="none" />
    <path d="M 222 248  L 222 145.7  L 286 99.2  L 375.6 162.44  L 426.8 127.1  L 478 162.44  L 478 248  L 222 248  " fill-rule="nonzero" fill="#169bd5" stroke="none" />
  </g>
</svg>