<?xml version="1.0" encoding="utf-8"?>
<svg version="1.1" xmlns:xlink="http://www.w3.org/1999/xlink" width="40px" height="40px" xmlns="http://www.w3.org/2000/svg">
  <g transform="matrix(1 0 0 1 -1685 -38 )">
    <path d="M 39.9147727272727 30.9943181818182  C 39.9715909090909 31.1268939393939  40 31.3257575757576  40 31.5909090909091  C 40 32.1022727272727  39.905303030303 32.7698863636364  39.7159090909091 33.59375  C 39.5265151515152 34.4176136363636  39.3276515151515 35.0662878787879  39.1193181818182 35.5397727272727  C 38.7215909090909 36.4867424242424  37.5662878787879 37.4905303030303  35.6534090909091 38.5511363636364  C 33.8731060606061 39.5170454545455  32.1117424242424 40  30.3693181818182 40  C 29.8579545454545 40  29.3560606060606 39.9668560606061  28.8636363636364 39.9005681818182  C 28.3712121212121 39.8342803030303  27.8267045454546 39.7159090909091  27.2301136363636 39.5454545454545  C 26.6335227272727 39.375  26.188446969697 39.2376893939394  25.8948863636364 39.1335227272727  C 25.6013257575758 39.0293560606061  25.0757575757576 38.8352272727273  24.3181818181818 38.5511363636364  C 23.5606060606061 38.2670454545455  23.0965909090909 38.0965909090909  22.9261363636364 38.0397727272727  C 21.0700757575758 37.3768939393939  19.4128787878788 36.5909090909091  17.9545454545455 35.6818181818182  C 15.5492424242424 34.1856060606061  13.0492424242424 32.1401515151515  10.4545454545455 29.5454545454545  C 7.85984848484849 26.9507575757576  5.81439393939394 24.4507575757576  4.31818181818182 22.0454545454545  C 3.40909090909091 20.5871212121212  2.62310606060606 18.9299242424242  1.96022727272727 17.0738636363636  C 1.90340909090909 16.9034090909091  1.73295454545455 16.4393939393939  1.44886363636364 15.6818181818182  C 1.16477272727273 14.9242424242424  0.970643939393939 14.3986742424242  0.866477272727273 14.1051136363636  C 0.762310606060606 13.811553030303  0.625 13.3664772727273  0.454545454545455 12.7698863636364  C 0.284090909090909 12.1732954545454  0.165719696969697 11.6287878787879  0.0994318181818182 11.1363636363636  C 0.0331439393939394 10.6439393939394  0 10.1420454545455  0 9.63068181818182  C 0 7.88825757575757  0.482954545454545 6.12689393939394  1.44886363636364 4.34659090909091  C 2.5094696969697 2.43371212121211  3.51325757575758 1.27840909090909  4.46022727272727 0.880681818181817  C 4.93371212121212 0.672348484848482  5.58238636363636 0.473484848484844  6.40625 0.284090909090908  C 7.23011363636364 0.0946969696969679  7.89772727272727 0  8.40909090909091 0  C 8.67424242424243 0  8.87310606060606 0.0284090909090917  9.00568181818182 0.0852272727272707  C 9.34659090909091 0.198863636363638  9.84848484848485 0.918560606060606  10.5113636363636 2.24431818181818  C 10.719696969697 2.60416666666666  11.0037878787879 3.1155303030303  11.3636363636364 3.77840909090909  C 11.7234848484848 4.44128787878788  12.0549242424242 5.04261363636364  12.3579545454545 5.58238636363636  C 12.6609848484848 6.12215909090909  12.9545454545455 6.62878787878788  13.2386363636364 7.10227272727273  C 13.2954545454545 7.1780303030303  13.4611742424242 7.41477272727273  13.7357954545455 7.8125  C 14.0104166666667 8.21022727272727  14.2140151515152 8.54640151515151  14.3465909090909 8.82102272727273  C 14.4791666666667 9.09564393939394  14.5454545454545 9.3655303030303  14.5454545454545 9.63068181818182  C 14.5454545454545 10.0094696969697  14.2755681818182 10.4829545454545  13.7357954545455 11.0511363636364  C 13.1960227272727 11.6193181818182  12.6089015151515 12.1401515151515  11.9744318181818 12.6136363636364  C 11.3399621212121 13.0871212121212  10.7528409090909 13.5890151515152  10.2130681818182 14.1193181818182  C 9.67329545454545 14.6496212121212  9.40340909090909 15.0852272727273  9.40340909090909 15.4261363636364  C 9.40340909090909 15.5965909090909  9.45075757575758 15.8096590909091  9.54545454545455 16.0653409090909  C 9.64015151515152 16.3210227272727  9.72064393939394 16.5151515151515  9.78693181818182 16.6477272727273  C 9.8532196969697 16.780303030303  9.98579545454545 17.0075757575758  10.1846590909091 17.3295454545455  C 10.3835227272727 17.6515151515152  10.4924242424242 17.8314393939394  10.5113636363636 17.8693181818182  C 11.9507575757576 20.4640151515151  13.5984848484848 22.6893939393939  15.4545454545455 24.5454545454545  C 17.3106060606061 26.4015151515151  19.5359848484849 28.0492424242424  22.1306818181818 29.4886363636364  C 22.1685606060606 29.5075757575758  22.3484848484848 29.6164772727273  22.6704545454545 29.8153409090909  C 22.9924242424242 30.0142045454545  23.219696969697 30.1467803030303  23.3522727272727 30.2130681818182  C 23.4848484848485 30.2793560606061  23.6789772727273 30.3598484848485  23.9346590909091 30.4545454545455  C 24.1903409090909 30.5492424242424  24.4034090909091 30.5965909090909  24.5738636363636 30.5965909090909  C 24.9147727272727 30.5965909090909  25.3503787878788 30.3267045454545  25.8806818181818 29.7869318181818  C 26.4109848484848 29.2471590909091  26.9128787878788 28.6600378787879  27.3863636363636 28.0255681818182  C 27.8598484848485 27.3910984848485  28.3806818181818 26.8039772727273  28.9488636363636 26.2642045454545  C 29.5170454545455 25.7244318181818  29.9905303030303 25.4545454545455  30.3693181818182 25.4545454545455  C 30.6344696969697 25.4545454545455  30.9043560606061 25.5208333333333  31.1789772727273 25.6534090909091  C 31.4535984848485 25.7859848484848  31.7897727272727 25.9895833333333  32.1875 26.2642045454545  C 32.5852272727273 26.5388257575758  32.8219696969697 26.7045454545455  32.8977272727273 26.7613636363636  C 33.3712121212121 27.0454545454545  33.8778409090909 27.3390151515151  34.4176136363636 27.6420454545455  C 34.9573863636364 27.9450757575758  35.5587121212121 28.2765151515151  36.2215909090909 28.6363636363636  C 36.8844696969697 28.9962121212121  37.3958333333333 29.280303030303  37.7556818181818 29.4886363636364  C 39.0814393939394 30.1515151515151  39.8011363636364 30.6534090909091  39.9147727272727 30.9943181818182  Z " fill-rule="nonzero" fill="#027db4" stroke="none" transform="matrix(1 0 0 1 1685 38 )" />
  </g>
</svg>